<svg width="720" height="360" viewBox="0 0 720 360" fill="none" xmlns="http://www.w3.org/2000/svg">
<path d="M152.967 230.967C149.692 230.967 147.836 229.933 147.4 227.863C147.072 225.903 147.945 223.724 150.019 221.328C152.857 217.298 154.276 209.02 154.276 196.494V150.585C154.276 144.921 154.167 141 153.949 138.822C153.84 136.534 153.294 134.084 152.312 131.47C151.329 128.856 149.746 126.677 147.563 124.934C146.363 123.954 145.544 123.028 145.107 122.157C144.671 121.177 144.834 120.196 145.599 119.216C146.363 118.236 147.836 117.528 150.019 117.092C163.009 114.151 173.27 108.869 180.802 101.245C182.111 99.9375 183.585 99.6107 185.222 100.264C186.86 100.809 187.678 102.007 187.678 103.859V171.988C187.678 172.75 188.061 173.295 188.825 173.621C189.589 173.839 190.407 173.512 191.281 172.641C199.795 164.363 201.705 157.828 197.011 153.036C195.811 151.837 195.483 150.53 196.029 149.115C196.684 147.59 197.885 146.827 199.631 146.827H239.91C242.202 146.827 243.512 147.535 243.84 148.951C244.167 150.258 243.294 151.402 241.22 152.382C234.78 155.432 227.139 160.061 218.297 166.269C209.455 172.369 204.816 176.235 204.38 177.869C204.27 178.414 204.325 178.741 204.543 178.849C204.871 178.849 205.416 178.741 206.181 178.523C206.836 178.414 207.381 178.359 207.818 178.359C208.255 178.25 208.91 178.141 209.783 178.033C210.656 177.924 211.584 177.869 212.566 177.869C215.077 177.869 217.424 178.414 219.607 179.503C221.899 180.592 223.755 181.845 225.174 183.261C226.702 184.568 228.285 186.637 229.922 189.469C231.669 192.301 232.924 194.588 233.688 196.331C234.561 197.965 235.762 200.688 237.29 204.5C238.928 208.203 240.019 210.708 240.565 212.015C242.966 217.243 246.132 221.6 250.062 225.086C251.262 226.066 251.644 227.264 251.208 228.68C250.88 230.205 250.007 230.967 248.588 230.967H213.876C211.911 230.967 210.274 230.423 208.964 229.333C207.763 228.353 207.054 226.992 206.836 225.249C206.071 218.932 204.325 212.723 201.596 206.624C198.867 200.415 195.92 195.841 192.754 192.9C191.335 191.702 190.025 191.539 188.825 192.41C187.733 193.281 187.187 194.752 187.187 196.821C187.406 208.911 188.988 217.08 191.936 221.328C196.52 227.754 195.374 230.967 188.497 230.967H152.967Z" fill="#313135"/>
<path d="M300.926 232.111C287.063 232.111 275.601 228.081 266.541 220.021C257.481 211.852 252.951 201.614 252.951 189.306C252.951 176.344 257.099 165.616 265.395 157.12C273.8 148.515 285.644 144.213 300.926 144.213C314.352 144.213 325.486 148.298 334.328 156.467C343.279 164.527 347.809 174.711 347.918 187.018C348.027 199.98 343.824 210.763 335.31 219.367C326.905 227.863 315.444 232.111 300.926 232.111ZM302.891 219.204C309.658 219.204 313.042 211.471 313.042 196.004C313.042 186.528 311.787 177.815 309.276 169.864C306.766 161.913 303.273 157.937 298.797 157.937C295.304 157.937 292.575 159.898 290.61 163.819C288.646 167.74 287.663 173.186 287.663 180.156C287.663 189.632 289.028 198.509 291.757 206.787C294.595 215.065 298.306 219.204 302.891 219.204Z" fill="#313135"/>
<path d="M394.903 233.581C383.333 233.581 373.836 231.457 366.414 227.21C358.991 222.962 355.28 217.788 355.28 211.689C355.28 206.46 357.572 202.757 362.156 200.579C366.741 198.292 371.544 197.529 376.565 198.292C381.586 199.054 384.861 200.524 386.389 202.703C387.044 204.119 387.263 205.208 387.044 205.97C386.826 206.733 386.389 207.876 385.734 209.401C385.189 210.817 384.916 212.07 384.916 213.159C384.916 215.664 385.898 217.843 387.863 219.694C389.828 221.437 392.666 222.308 396.377 222.308C399.87 222.308 402.763 221.437 405.055 219.694C407.457 217.843 408.657 215.555 408.657 212.832C408.657 210.763 406.911 208.639 403.418 206.46C399.925 204.173 395.668 201.94 390.646 199.762C385.625 197.584 380.604 195.187 375.583 192.573C370.562 189.959 366.304 186.801 362.811 183.097C359.318 179.285 357.572 175.146 357.572 170.681C357.572 163.165 361.01 157.066 367.887 152.382C374.873 147.59 383.879 145.193 394.903 145.193C398.287 145.193 402.053 145.684 406.201 146.664C410.458 147.644 413.406 148.134 415.043 148.134C417.881 148.134 420.064 147.045 421.592 144.867C422.029 144.104 422.52 143.669 423.066 143.56C423.612 143.342 424.158 143.56 424.703 144.213C425.249 144.867 425.686 146.01 426.013 147.644L432.235 177.542C432.672 179.612 431.853 181.028 429.779 181.79C427.705 182.553 426.068 182.008 424.867 180.156C422.466 176.671 420.555 174.057 419.136 172.314C417.717 170.572 415.752 168.339 413.242 165.616C410.731 162.784 408.221 160.714 405.71 159.407C403.309 158.1 400.853 157.501 398.342 157.61C395.395 157.719 393.157 158.427 391.629 159.734C390.101 161.041 389.337 162.729 389.337 164.799C389.337 166.977 390.919 169.156 394.085 171.334C397.25 173.512 401.071 175.691 405.546 177.869C410.022 179.939 414.497 182.226 418.973 184.731C423.557 187.127 427.432 190.231 430.598 194.044C433.872 197.856 435.564 202.049 435.674 206.624C435.783 215.12 431.853 221.764 423.885 226.556C416.025 231.24 406.365 233.581 394.903 233.581Z" fill="#313135"/>
<path d="M448.407 230.967C447.097 230.967 446.278 230.314 445.951 229.007C445.732 227.7 446.169 226.502 447.26 225.412C448.243 224.432 449.062 223.343 449.716 222.145C450.481 220.838 451.026 219.749 451.354 218.877C451.79 218.006 452.063 216.699 452.172 214.956C452.391 213.213 452.5 211.961 452.5 211.198C452.609 210.436 452.609 208.911 452.5 206.624C452.5 204.337 452.5 202.812 452.5 202.049V188.489C452.5 176.181 450.317 168.066 445.951 164.145C442.348 160.987 442.949 158.808 447.752 157.61C463.143 153.689 473.676 149.06 479.353 143.723C480.772 142.416 482.191 142.089 483.61 142.743C485.029 143.287 485.738 144.485 485.738 146.337V152.055C485.738 153.253 486.175 154.016 487.048 154.343C488.031 154.669 489.068 154.452 490.159 153.689C490.377 153.58 491.142 153.145 492.451 152.382C493.761 151.511 494.525 151.021 494.744 150.912C495.071 150.694 495.781 150.258 496.872 149.605C498.073 148.951 498.892 148.57 499.328 148.461C499.874 148.243 500.638 147.916 501.621 147.481C502.712 146.936 503.585 146.609 504.24 146.5C504.895 146.283 505.659 146.065 506.533 145.847C507.515 145.52 508.443 145.357 509.316 145.357C510.189 145.248 511.117 145.193 512.1 145.193C516.684 145.193 520.396 146.01 523.234 147.644C526.181 149.278 529.019 151.729 531.748 154.996C532.949 156.303 534.204 156.467 535.514 155.486C544.792 148.624 552.815 145.193 559.583 145.193C568.534 145.193 575.192 147.971 579.559 153.526C584.034 159.081 587.254 167.685 589.219 179.34L593.312 203.683C595.059 213.268 597.624 219.858 601.008 223.452C602.864 225.195 603.628 226.883 603.3 228.517C602.973 230.15 601.281 230.967 598.224 230.967H557.454C555.38 230.967 554.016 230.314 553.361 229.007C552.706 227.7 553.197 225.848 554.835 223.452C558.546 218.442 559.801 212.015 558.6 204.173L555.326 182.117C553.579 170.136 550.414 164.145 545.829 164.145C540.262 164.145 537.479 170.844 537.479 184.241V203.683C537.479 209.891 537.806 214.466 538.461 217.407C539.116 220.239 540.59 222.907 542.882 225.412C543.973 226.502 544.301 227.7 543.864 229.007C543.428 230.314 542.445 230.967 540.917 230.967H500.802C499.274 230.967 498.291 230.314 497.855 229.007C497.418 227.7 497.691 226.447 498.673 225.249C500.856 222.744 502.276 219.966 502.93 216.917C503.585 213.867 503.913 209.619 503.913 204.173V180.156C503.913 174.819 502.985 170.898 501.129 168.393C499.383 165.779 497.309 164.472 494.907 164.472C492.397 164.472 490.214 165.779 488.358 168.393C486.611 171.007 485.738 174.819 485.738 179.83V202.539C485.738 207.441 485.793 210.872 485.902 212.832C486.011 214.684 486.448 216.808 487.212 219.204C487.976 221.491 489.231 223.561 490.978 225.412C491.96 226.393 492.233 227.536 491.796 228.843C491.469 230.259 490.65 230.967 489.34 230.967H448.407Z" fill="#313135"/>
<path d="M654.006 232.111C640.143 232.111 628.681 228.081 619.621 220.021C610.561 211.852 606.031 201.614 606.031 189.306C606.031 176.344 610.179 165.616 618.475 157.12C626.88 148.515 638.724 144.213 654.006 144.213C667.432 144.213 678.566 148.298 687.408 156.467C696.359 164.527 700.889 174.711 700.998 187.018C701.107 199.98 696.904 210.763 688.39 219.367C679.985 227.863 668.524 232.111 654.006 232.111ZM655.971 219.204C662.738 219.204 666.122 211.471 666.122 196.004C666.122 186.528 664.867 177.815 662.356 169.864C659.846 161.913 656.353 157.937 651.877 157.937C648.384 157.937 645.655 159.898 643.69 163.819C641.726 167.74 640.743 173.186 640.743 180.156C640.743 189.632 642.108 198.509 644.837 206.787C647.675 215.065 651.386 219.204 655.971 219.204Z" fill="#313135"/>
<g clip-path="url(#clip0_1201_816)">
<path d="M239.634 302.528C216.842 307.906 192.668 309.843 173.211 308.287C134.773 304.075 89.6347 286.987 65.1309 262.465C72.7364 280.576 83.9073 295.178 98.1963 304.517C129.451 327.729 192.992 321.476 239.634 302.528Z" fill="#9F62A3"/>
<path d="M255.165 298.246C244.433 313.309 222.432 323.715 201.921 324.725C191.517 325.237 176.452 322.879 160.933 319.412C155.236 319.573 149.643 319.469 144.225 319.075C168.784 330.466 194.847 336.57 220.067 334.941C235.621 333.935 263.056 325.651 284.048 307.13C298.604 294.289 313.01 266.563 322.139 239.078C318.283 243.87 314.071 248.585 309.602 253.163C303.989 267.33 294.794 279.691 283.469 286.149C275.075 290.936 265.428 294.97 255.165 298.246Z" fill="#A1C84C"/>
<path d="M46.9119 232.834C33.8431 211.57 25.6869 189.067 24.5407 167.512C18.3755 184.631 16.0713 201.347 19.7952 215.101C24.7781 239.122 44.065 260.828 71.9254 276.09C69.4182 271.817 67.153 267.265 65.138 262.467C58.8271 256.151 53.8849 249.343 50.7782 242.134C49.2747 239.15 47.9873 236.045 46.9119 232.834Z" fill="#00933B"/>
<path d="M61.0984 140.087C69.0074 109.582 82.982 80.6538 102.683 58.9492C60.3891 81.3899 30.4123 115.506 25.3808 148.871C21.3231 175.779 30.0078 205.339 46.9032 232.83C38.057 206.416 43.5527 172.796 61.0984 140.087Z" fill="#2158A4"/>
<path d="M205.472 37.5455C204.488 37.0587 203.498 36.5779 202.502 36.1025C169.476 20.3361 155.008 22.8563 136.046 32.7469C98.2745 52.4485 72.9136 94.5088 61.0957 140.091C62.1708 138.087 63.2911 136.086 64.4561 134.09C94.2109 83.1262 151.189 38.6706 205.472 37.5455Z" fill="#BA1A68"/>
<path d="M204.55 283.693C200.074 284.923 195.478 285.744 190.771 286.112C190.535 286.131 190.299 286.149 190.063 286.168C189.831 286.187 189.599 286.205 189.367 286.224L189.056 286.249C173.903 287.469 158.048 288.745 138.791 266.91C124.823 251.071 112.609 234.313 99.558 208.309C99.2095 207.513 98.8585 206.713 98.5059 205.909L98.495 205.884C93.8814 195.361 88.9796 184.181 85.4567 173.497C75.3294 151.26 72.961 129.004 79.7646 111.367C74.1289 118.719 69.0015 126.341 64.4737 134.097C41.9834 172.618 36.1558 213.11 50.7844 242.139C64.4858 273.933 113.892 297.942 158.946 306.194C175.005 301.187 191.408 292.831 204.55 283.693Z" fill="#F7A700"/>
<path d="M93.8111 94.8029C83.7131 105.236 85.203 103.908 79.7491 111.368C72.9455 129.004 75.3139 151.261 85.4413 173.498C85.619 174.037 85.9849 175.118 85.9849 175.118C83.2835 167.193 81.2883 159.507 80.6708 152.524C79.0154 133.803 85.5348 112.08 101.363 101.042C126.526 83.4952 160.827 74.9938 186.617 73.8944C231.497 73.8942 269.909 88.319 285.847 112.726C279.102 97.5038 272.062 84.52 263.428 71.9079C243.874 43.3432 230.837 38.5456 210.626 37.6495C153.33 35.1092 103.909 84.3697 93.8111 94.8029Z" fill="#E94D18"/>
<path d="M159.414 319.45C175.446 323.097 191.135 325.622 201.866 325.093C222.521 324.076 244.687 313.531 255.334 298.297C250.338 299.886 245.197 301.296 239.984 302.526C215.42 312.505 186.168 318.963 159.414 319.45Z" fill="#2586C8"/>
<path d="M337.794 147.168C338.113 139.819 338.253 132.542 338.253 125.373C338.253 84.9819 329.302 72.8442 310.773 58.6612C279.212 34.5029 235.896 27.1568 192.678 31.7275C195.766 32.9934 199.032 34.4486 202.504 36.1059C203.5 36.5813 204.49 37.0622 205.474 37.5489C207.192 37.5382 208.909 37.5704 210.626 37.6465C230.836 38.5425 243.873 43.3402 263.428 71.9049C265.399 74.784 267.287 77.6825 269.107 80.6226C272.801 83.6583 276.61 86.8431 280.559 90.1898C296.33 105.044 313.597 122.841 324.432 137.748C329.351 140.221 333.85 143.406 337.794 147.168Z" fill="#2586C8"/>
<path d="M313.477 240.823C309.041 241.968 304.39 242.578 299.596 242.578C287.503 242.578 276.317 238.7 267.211 232.121C251.027 257.04 229.643 276.824 204.492 283.708C191.368 292.834 174.989 301.181 158.949 306.192C163.775 307.076 168.551 307.779 173.228 308.291C206.336 310.94 253.104 303.472 283.478 286.151C298.002 277.869 309.023 259.879 313.477 240.823Z" fill="#FFEB00"/>
<path d="M323.739 237.048C320.477 238.631 317.037 239.904 313.457 240.827C312.476 245.022 311.177 249.166 309.592 253.166C314.692 247.942 319.456 242.541 323.739 237.048Z" fill="#942180"/>
<path d="M280.559 90.1917C296.327 105.043 313.591 122.837 324.426 137.742C316.959 133.989 308.526 131.875 299.598 131.875C297.667 131.875 295.758 131.974 293.878 132.167C286.007 111.892 278.447 95.7111 269.107 80.625C272.802 83.6605 276.61 86.8451 280.559 90.1917Z" fill="#942180"/>
</g>
<path d="M446.26 314.169C444.58 314.169 443.28 313.669 442.36 312.669C441.44 311.669 440.98 310.229 440.98 308.349V289.389C440.98 287.509 441.44 286.069 442.36 285.069C443.28 284.069 444.58 283.569 446.26 283.569C447.98 283.569 449.3 284.069 450.22 285.069C451.18 286.069 451.66 287.509 451.66 289.389V308.349C451.66 310.229 451.2 311.669 450.28 312.669C449.36 313.669 448.02 314.169 446.26 314.169ZM446.26 279.309C444.38 279.309 442.92 278.869 441.88 277.989C440.88 277.109 440.38 275.829 440.38 274.149C440.38 272.509 440.88 271.249 441.88 270.369C442.92 269.489 444.38 269.049 446.26 269.049C448.22 269.049 449.7 269.489 450.7 270.369C451.7 271.249 452.2 272.509 452.2 274.149C452.2 275.829 451.7 277.109 450.7 277.989C449.7 278.869 448.22 279.309 446.26 279.309ZM463.735 314.169C462.055 314.169 460.755 313.709 459.835 312.789C458.915 311.869 458.455 310.529 458.455 308.769V288.909C458.455 287.189 458.895 285.869 459.775 284.949C460.695 284.029 461.995 283.569 463.675 283.569C465.355 283.569 466.635 284.029 467.515 284.949C468.395 285.869 468.835 287.189 468.835 288.909V291.729L468.175 289.269C469.135 287.389 470.495 285.949 472.255 284.949C474.055 283.949 476.095 283.449 478.375 283.449C480.735 283.449 482.675 283.909 484.195 284.829C485.715 285.709 486.855 287.109 487.615 289.029C488.375 290.909 488.755 293.289 488.755 296.169V308.769C488.755 310.529 488.295 311.869 487.375 312.789C486.455 313.709 485.135 314.169 483.415 314.169C481.695 314.169 480.375 313.709 479.455 312.789C478.535 311.869 478.075 310.529 478.075 308.769V296.589C478.075 294.789 477.755 293.509 477.115 292.749C476.515 291.989 475.615 291.609 474.415 291.609C472.815 291.609 471.535 292.129 470.575 293.169C469.615 294.169 469.135 295.529 469.135 297.249V308.769C469.135 312.369 467.335 314.169 463.735 314.169ZM510.502 314.289C507.182 314.289 504.282 313.669 501.802 312.429C499.362 311.189 497.462 309.409 496.102 307.089C494.742 304.729 494.062 301.969 494.062 298.809C494.062 296.409 494.442 294.269 495.202 292.389C495.962 290.469 497.062 288.849 498.502 287.529C499.982 286.209 501.722 285.209 503.722 284.529C505.762 283.809 508.022 283.449 510.502 283.449C511.662 283.449 512.882 283.569 514.162 283.809C515.442 284.009 516.762 284.409 518.122 285.009C519.082 285.369 519.742 285.929 520.102 286.689C520.502 287.409 520.662 288.189 520.582 289.029C520.542 289.869 520.302 290.629 519.862 291.309C519.462 291.989 518.882 292.449 518.122 292.689C517.402 292.929 516.582 292.829 515.662 292.389C515.022 292.069 514.342 291.849 513.622 291.729C512.942 291.569 512.282 291.489 511.642 291.489C510.562 291.489 509.602 291.649 508.762 291.969C507.962 292.289 507.282 292.769 506.722 293.409C506.162 294.009 505.722 294.769 505.402 295.689C505.122 296.609 504.982 297.649 504.982 298.809C504.982 301.129 505.562 302.949 506.722 304.269C507.882 305.589 509.522 306.249 511.642 306.249C512.282 306.249 512.942 306.189 513.622 306.069C514.302 305.909 514.982 305.669 515.662 305.349C516.582 304.909 517.402 304.829 518.122 305.109C518.842 305.349 519.422 305.809 519.862 306.489C520.302 307.169 520.542 307.929 520.582 308.769C520.622 309.569 520.442 310.349 520.042 311.109C519.642 311.829 518.962 312.369 518.002 312.729C516.682 313.329 515.382 313.729 514.102 313.929C512.862 314.169 511.662 314.289 510.502 314.289ZM536.324 314.289C532.484 314.289 529.644 313.269 527.804 311.229C526.004 309.149 525.104 306.029 525.104 301.869V276.189C525.104 274.429 525.564 273.089 526.484 272.169C527.404 271.249 528.704 270.789 530.384 270.789C532.104 270.789 533.424 271.249 534.344 272.169C535.304 273.089 535.784 274.429 535.784 276.189V301.509C535.784 302.989 536.064 304.069 536.624 304.749C537.224 305.429 537.984 305.769 538.904 305.769C539.184 305.769 539.464 305.749 539.744 305.709C540.064 305.629 540.404 305.569 540.764 305.529C541.444 305.529 541.944 305.789 542.264 306.309C542.624 306.829 542.804 307.889 542.804 309.489C542.804 310.889 542.524 311.949 541.964 312.669C541.404 313.349 540.544 313.789 539.384 313.989C539.064 314.029 538.604 314.089 538.004 314.169C537.404 314.249 536.844 314.289 536.324 314.289ZM557.604 314.289C555.044 314.289 552.944 313.829 551.304 312.909C549.664 311.949 548.424 310.529 547.584 308.649C546.784 306.769 546.384 304.389 546.384 301.509V288.909C546.384 287.149 546.844 285.829 547.764 284.949C548.684 284.029 550.004 283.569 551.724 283.569C553.444 283.569 554.764 284.029 555.684 284.949C556.604 285.829 557.064 287.149 557.064 288.909V301.809C557.064 303.249 557.364 304.329 557.964 305.049C558.564 305.769 559.504 306.129 560.784 306.129C562.224 306.129 563.404 305.609 564.324 304.569C565.244 303.529 565.704 302.149 565.704 300.429V288.909C565.704 287.149 566.164 285.829 567.084 284.949C568.004 284.029 569.324 283.569 571.044 283.569C572.764 283.569 574.084 284.029 575.004 284.949C575.924 285.829 576.384 287.149 576.384 288.909V308.769C576.384 312.369 574.664 314.169 571.224 314.169C569.544 314.169 568.244 313.709 567.324 312.789C566.404 311.869 565.944 310.529 565.944 308.769V305.289L566.904 308.229C566.024 310.189 564.784 311.689 563.184 312.729C561.624 313.769 559.764 314.289 557.604 314.289ZM594.959 314.289C593.199 314.289 591.399 314.149 589.559 313.869C587.759 313.629 586.119 313.169 584.639 312.489C583.639 312.089 582.919 311.549 582.479 310.869C582.079 310.189 581.879 309.469 581.879 308.709C581.919 307.949 582.139 307.269 582.539 306.669C582.979 306.029 583.539 305.589 584.219 305.349C584.939 305.069 585.739 305.089 586.619 305.409C588.299 306.009 589.799 306.449 591.119 306.729C592.479 306.969 593.779 307.089 595.019 307.089C596.499 307.089 597.559 306.889 598.199 306.489C598.839 306.049 599.159 305.489 599.159 304.809C599.159 304.209 598.939 303.749 598.499 303.429C598.099 303.109 597.519 302.889 596.759 302.769L590.099 301.689C587.619 301.249 585.699 300.349 584.339 298.989C582.979 297.589 582.299 295.769 582.299 293.529C582.299 291.449 582.879 289.669 584.039 288.189C585.239 286.669 586.859 285.509 588.899 284.709C590.979 283.869 593.359 283.449 596.039 283.449C597.839 283.449 599.479 283.589 600.959 283.869C602.439 284.109 603.879 284.569 605.279 285.249C606.159 285.609 606.779 286.129 607.139 286.809C607.499 287.489 607.639 288.209 607.559 288.969C607.479 289.689 607.219 290.369 606.779 291.009C606.379 291.609 605.819 292.029 605.099 292.269C604.379 292.469 603.539 292.409 602.579 292.089C601.259 291.569 600.079 291.189 599.039 290.949C598.039 290.709 597.099 290.589 596.219 290.589C594.579 290.589 593.419 290.809 592.739 291.249C592.059 291.689 591.719 292.249 591.719 292.929C591.719 293.449 591.899 293.889 592.259 294.249C592.619 294.569 593.179 294.789 593.939 294.909L600.599 296.049C603.159 296.449 605.119 297.329 606.479 298.689C607.879 300.009 608.579 301.809 608.579 304.089C608.579 307.329 607.339 309.849 604.859 311.649C602.379 313.409 599.079 314.289 594.959 314.289ZM618.845 314.169C617.165 314.169 615.865 313.669 614.945 312.669C614.025 311.669 613.565 310.229 613.565 308.349V289.389C613.565 287.509 614.025 286.069 614.945 285.069C615.865 284.069 617.165 283.569 618.845 283.569C620.565 283.569 621.885 284.069 622.805 285.069C623.765 286.069 624.245 287.509 624.245 289.389V308.349C624.245 310.229 623.785 311.669 622.865 312.669C621.945 313.669 620.605 314.169 618.845 314.169ZM618.845 279.309C616.965 279.309 615.505 278.869 614.465 277.989C613.465 277.109 612.965 275.829 612.965 274.149C612.965 272.509 613.465 271.249 614.465 270.369C615.505 269.489 616.965 269.049 618.845 269.049C620.805 269.049 622.285 269.489 623.285 270.369C624.285 271.249 624.785 272.509 624.785 274.149C624.785 275.829 624.285 277.109 623.285 277.989C622.285 278.869 620.805 279.309 618.845 279.309ZM645.98 314.289C642.7 314.289 639.84 313.669 637.4 312.429C634.96 311.189 633.06 309.409 631.7 307.089C630.34 304.769 629.66 302.029 629.66 298.869C629.66 296.469 630.04 294.329 630.8 292.449C631.56 290.529 632.66 288.909 634.1 287.589C635.54 286.229 637.26 285.209 639.26 284.529C641.26 283.809 643.5 283.449 645.98 283.449C649.26 283.449 652.12 284.069 654.56 285.309C657 286.549 658.88 288.329 660.2 290.649C661.56 292.929 662.24 295.669 662.24 298.869C662.24 301.229 661.86 303.369 661.1 305.289C660.34 307.209 659.24 308.849 657.8 310.209C656.4 311.529 654.68 312.549 652.64 313.269C650.64 313.949 648.42 314.289 645.98 314.289ZM645.98 306.429C647.06 306.429 648.02 306.169 648.86 305.649C649.7 305.089 650.34 304.269 650.78 303.189C651.26 302.069 651.5 300.629 651.5 298.869C651.5 296.189 650.98 294.269 649.94 293.109C648.9 291.909 647.58 291.309 645.98 291.309C644.9 291.309 643.94 291.569 643.1 292.089C642.26 292.609 641.6 293.429 641.12 294.549C640.64 295.629 640.4 297.069 640.4 298.869C640.4 301.509 640.92 303.429 641.96 304.629C643 305.829 644.34 306.429 645.98 306.429ZM649.82 279.789C649.26 280.509 648.58 280.929 647.78 281.049C647.02 281.129 646.3 280.989 645.62 280.629C644.94 280.229 644.44 279.689 644.12 279.009C643.84 278.289 643.9 277.489 644.3 276.609L648.26 268.629C648.74 267.669 649.38 267.049 650.18 266.769C650.98 266.489 651.78 266.469 652.58 266.709C653.42 266.949 654.14 267.369 654.74 267.969C655.38 268.569 655.76 269.269 655.88 270.069C656.04 270.869 655.8 271.689 655.16 272.529L649.82 279.789ZM673.013 314.169C671.333 314.169 670.033 313.709 669.113 312.789C668.193 311.869 667.733 310.529 667.733 308.769V288.909C667.733 287.189 668.173 285.869 669.053 284.949C669.973 284.029 671.273 283.569 672.953 283.569C674.633 283.569 675.913 284.029 676.793 284.949C677.673 285.869 678.113 287.189 678.113 288.909V291.729L677.453 289.269C678.413 287.389 679.773 285.949 681.533 284.949C683.333 283.949 685.373 283.449 687.653 283.449C690.013 283.449 691.953 283.909 693.473 284.829C694.993 285.709 696.133 287.109 696.893 289.029C697.653 290.909 698.033 293.289 698.033 296.169V308.769C698.033 310.529 697.573 311.869 696.653 312.789C695.733 313.709 694.413 314.169 692.693 314.169C690.973 314.169 689.653 313.709 688.733 312.789C687.813 311.869 687.353 310.529 687.353 308.769V296.589C687.353 294.789 687.033 293.509 686.393 292.749C685.793 291.989 684.893 291.609 683.693 291.609C682.093 291.609 680.813 292.129 679.853 293.169C678.893 294.169 678.413 295.529 678.413 297.249V308.769C678.413 312.369 676.613 314.169 673.013 314.169Z" fill="#313135"/>
<defs>
<clipPath id="clip0_1201_816">
<rect width="320.252" height="310.399" fill="white" transform="translate(18 24.8008)"/>
</clipPath>
</defs>
</svg>
